<svg xmlns="http://www.w3.org/2000/svg" xmlns:xlink="http://www.w3.org/1999/xlink" width="67" height="51" viewBox="0 0 67 51">
    <defs>
        <path id="b9v54w096a" d="M0 0L67 0 67 51 0 51z"/>
    </defs>
    <g fill="none" fill-rule="evenodd">
        <g>
            <g transform="translate(-170 -1172) translate(170 1172)">
                <mask id="yvx0vtc87b" fill="#fff">
                    <use xlink:href="#b9v54w096a"/>
                </mask>
                <path fill="#009042" d="M15.08 21.552c-.783 0-1.436-.068-2.07.013-1.716.219-3.425.324-5.153.146-1.62-.167-3.189-.54-4.708-1.098-1.165-.427-2.216-1.073-2.945-2.13-.122-.176-.139-.426-.204-.642.204-.02.421-.094.61-.05 2.101.498 4.186 1.07 6.3 1.5.892.181 1.842.092 2.766.093.619 0 1.243-.017 1.856-.095 1.177-.15 2.35-.334 3.52-.538.248-.044.48-.22.705-.359.827-.513 1.617-1.098 2.48-1.54.941-.483 1.919-.948 2.934-1.218 1.142-.304 2.346-.37 3.519-.56 1.012-.165 2.014-.446 3.032-.52 1.426-.105 2.863-.066 4.296-.086.147-.002.295.023.443.023 1.974.002 3.948.018 5.922-.007.75-.01 1.535.004 2.24-.206.839-.25 1.631-.69 2.404-1.12.922-.514 1.822-1.076 2.69-1.677.336-.232.597-.603.822-.957.637-.999 1.231-2.025 1.855-3.033.347-.563.597-1.15.666-1.82.047-.45.142-.899.264-1.335.066-.237.221-.453.356-.665.38-.6.735-1.221 1.166-1.782.603-.786 1.446-1.217 2.372-1.546 1.428-.509 2.867-.393 4.26-.033.892.23 1.697.798 2.545 1.206.708.34 1.146.958 1.64 1.535.254.296.66.506 1.036.64 1.273.455 2.561.867 3.85 1.273.371.117.516.25.424.692-.28 1.355-.727 2.644-1.453 3.81-.203.326-.634.593-1.013.704-.587.17-1.223.156-1.83.271-.515.098-1.016.268-1.524.405-.333.09-.662.203-1 .258-.348.058-.71.033-1.058.087-.488.076-.768.416-.986.843-.429.843-.5 1.767-.586 2.676-.17 1.803-.61 3.494-1.678 4.99-.603.846-.75 1.86-.876 2.861-.18 1.412-.263 2.839-.516 4.236-.129.713-.454 1.427-.84 2.047-.65 1.047-.975 2.134-.948 3.373.036 1.673-.475 3.243-1.024 4.801-.516 1.463-.653 2.968-.463 4.516.157 1.279.28 2.565.335 3.851.032.769.452 1.114 1.073 1.32.657.216.93.732 1.128 1.33.09.273-.005.456-.24.588-.401.226-.801.454-1.292.376-.78-.124-1.569-.213-2.342-.373-.522-.107-.801-.516-.96-1.017-.348-1.102-.78-2.183-1.035-3.306-.157-.693-.115-1.454-.047-2.173.1-1.065.17-2.119-.02-3.174l-.153-.038c-.095.365-.237.724-.27 1.094-.035.364.075.74.062 1.108-.026.742-.12 1.48-.136 2.222-.015.668-.012 1.345.073 2.005.1.773.274 1.54.46 2.297.162.664.647 1.12 1.14 1.549.38.33.726.679.673 1.233-.012.12-.138.305-.244.332-1.632.427-3.213.315-4.699-.546-.414-.24-.55-.728-.44-1.347.141-.8.204-1.577-.37-2.28-.144-.178-.14-.508-.143-.768-.018-1.323-.017-2.647-.02-3.97-.001-.509.004-1.017.005-1.526 0-1.316.061-2.636-.022-3.948-.052-.814-.31-1.617-.499-2.42-.122-.52-.529-.645-1.002-.674-1.22-.075-2.442-.14-3.658-.26-.504-.05-.996-.224-1.491-.351-1.238-.32-2.47-.67-3.713-.962-1.616-.38-3.242-.711-4.862-1.072-.329-.073-.543.12-.806.252-.74.371-1.276.943-1.71 1.631-.443.7-.838 1.44-1.344 2.09-.637.817-1.38 1.55-2.052 2.341-.62.732-1.11 1.557-1.23 2.525-.176 1.425-.214 2.87-.454 4.283-.135.796.12 1.288.687 1.71.33.245.687.454 1.044.658.619.352.645.897.043 1.277-1.37.862-3.041.61-3.963-.446-.54-.62-.659-1.404-.726-2.185-.156-1.802-.286-3.605-.427-5.408-.005-.06.005-.131-.025-.175-.12-.178-.255-.347-.384-.52-.143.15-.297.29-.425.452-.118.149-.183.346-.315.477-1.062 1.064-1.826 2.3-2.333 3.728-.363 1.023-.794 2.023-.687 3.129.037.385.245.772.445 1.117.183.315.487.557.69.863.273.411.11.79-.188 1.118-.685.756-1.545.773-2.457.582-.416-.086-.844-.124-1.25-.242-.15-.044-.362-.256-.36-.39.024-1.69.055-3.38.351-5.057.389-2.203 1.315-4.206 2.108-6.266.289-.751.468-1.573.538-2.376.107-1.231.11-2.474.096-3.712-.017-1.413-.183-2.828-.134-4.238.06-1.733.32-3.447 1.238-4.983.225-.377.388-.792.64-1.317" mask="url(#yvx0vtc87b)"/>
            </g>
        </g>
    </g>
</svg>
