<svg xmlns="http://www.w3.org/2000/svg" width="800" height="54" viewBox="0 0 800 54" preserveAspectRatio="none">
    <g fill="none" fill-rule="evenodd">
        <g fill="#009042">
            <path d="M850 3850.017c-.135.027-.904-.028-1.04 0-.356 1.098-1.242 5.106-1.636 6.32l-.532-.8c-.27 1.441.205 3.016-1.844 3.58.209-.91.382-1.666.511-2.235l-1.863-1.378c-.266.863-.545 1.776-.826 2.691l-.343-.095.462-2.142-.482-.144-.842 2.068c-.602.188-1.215.382-1.886.594l-.713-1.925-2.18 3.416c-.12-.055-.24-.11-.362-.168-.094-.598-.19-1.196-.333-2.09-.89 1.233-1.661 1.086-2.386-.018-.062.664-.104 1.088-.146 1.528-.814-.135-1.584-.264-2.507-.42l-.294 2.766c-.701-1.364-1.194-2.328-1.687-3.291-.07.019-.139.039-.209.06l.155 2.227-1.728-3.102-.386.166 1.276 5.313-.323.095c-.35-.739-.7-1.476-1.184-2.492-.553 1.593-1.287 2.149-2.418 1.142-.316.94-.608 1.804-1.011 2.997-.69-.649-1.564-1.123-1.89-1.845-.78-1.739-.678-1.786-2.049-1.838v4.562c-.104.008-.208.013-.312.02-.141-.401-.28-.802-.324-.923l-1.543 1.657.049.94c-.182-1.377-.914-.975-1.392-.6l-3.297-3.123c-.097 1.108-.17 1.97-.208 2.41l-1.826.74-1.774-2.524c-.374 1.26-.687 2.314-1.035 3.48l-.791-.55-2.347 2.742-1.122-1.57c-.178.493-.398 1.093-.6 1.657-.862-.356-1.486-.615-2.292-.95l-.36-1.755c-.715.916-1.348 1.73-2.005 2.574-.647-1.23-1.305-2.486-2.051-3.907-.39.504-.689 1.215-1.214 1.481-.51.256-1.25.056-1.89.056l-.115.447-1.519-1.961-1.68 1.126-.85-3.104-.248.016v2.96c-.524-.853-.847-1.379-1.221-1.984l-.21 1.84c-.78-1.15-1.574-2.322-2.519-3.719l-1.34 1.53-2.02-3.228c.066 1.032.108 1.677.162 2.54l-1.217-.866-.47 3.674c-.174-.303-.355-.616-.367-.639h-2.045c-.088-.108-.304-.38-.628-.788l-1.365 2.378c-.478-.373-.879-.683-1.523-1.182l.288 2.748c-.78-.868-1.325-1.478-2.023-2.256v2.363l-1.453-2.095-.291.155c.069.667.139 1.333.26 2.512l-2.032-2.753-1.591 1.26c-.989-.67-1.96-1.325-3.017-2.04-.334.948-.602 1.703-1.022 2.89-.474-.568-.895-.904-1.08-1.34-.35-.829-.561-1.715-.832-2.58l-.584.188c.185.998.367 1.997.602 3.284l-1.342-.692-.743 2.187c-.62-.939-1.182-1.785-1.833-2.767l-1.148 1.8c-.376-.721-.798-1.244-.93-1.833-.397-1.767-.814-2.06-2.61-1.585l-.684-2.17-.524 1.13c-.436-.8-.543-1.714-1.49-.864.283-1.703.553-3.34.822-4.974l-.36-.06-.943 1.847c-.49-.546-.869-.965-1.276-1.416-.708 1.43-1.651 1.543-2.803.733-.301-.213-.593-.611-.898-.62-1.515-.044-1.516-.009-1.919-1.655.045.626.188 1.003.07 1.256-.705 1.499 1.298 3.6-1.067 4.687l-1.954-1.114.762 1.823c-1.679.047-2.428-.86-3.003-2.058-.484-1.007-1.002-1.996-1.506-2.991-.148.035-.297.072-.446.11.93 1.362 1.084 2.543-.593 3.316-.61-.888-1.211-1.77-1.815-2.651l-.35.255c.114.6.227 1.202.407 2.144l-3.517-4.55c-.046.528.093 1.337-.208 1.915-.68 1.3-1.576 2.484-2.282 3.559l-.949-1.32-1.546 4.061-.55-.077-.731-3.763-.658 2.233c-.48-.527-.783-.858-1.308-1.432.185 1.8-.346 1.944-1.358.928.052.47.1.878.198 1.727l-3.343-.997.077 1.748c-.62.133-1.056.224-1.83.388l-1.282-1.675-.46 2.49-1.955-2.31-.308 3.83c-.474-.224-.992-.299-1.109-.556-.568-1.256-.776-2.691-2.771-2.579-.53.031-1.125-1.093-1.781-1.786-.318 1.387.644 3.25-1.634 3.467l.226.829-.366.12c-.368-.897-.733-1.795-1.184-2.9l-.61 1.807-1.067-1.205-1.762 3.2c-.936-1.387-2.127-1.628-3.5-1.633-.405-.002-.965-.605-1.173-1.061-.317-.695-.392-1.504-.645-2.591-.44.595-.651.883-.908 1.233l-.366-1.469-.559 1.503-.874-2.582-.173 2.835-.501-.021-.108-1.667-2.135.177-.084 1.449-.265.01-.346-2.128-1.098 4.568c-.13.02-.263.04-.395.058l-.893-2.984-.42 3.598-.39-.047-.487-3.295-.401.044-.72 2.496c-.108-.025-.215-.049-.323-.072l-.364-1.179c-1.853-.878-1.531.679-1.862 1.884-.348-.954-.554-1.511-.759-2.07l-.177.045.23 1.577-1.213-.69-.303 1.812c-.536-1.09-.669-2.287-1.982-1.427-.237-.643-.424-1.157-.612-1.67l-.25.039c-.054.894-.106 1.787-.182 3.073l-1.177-1.871-.274.175-.264-1.872-.228.03-.464 2.73-.619.062-1.718-4.345c-.449 1.191-.848 2.251-1.392 3.7l-1.445-3.31c-.282.73-.447 1.438-.315 2.089.168.829.197 1.309-.82 1.001v1.526c-.902-1.15-1.711-2.178-2.812-3.579l.501 2.174c-.976-.224-1.402 1.166-2.468.69-.156.476-.345.945-.453 1.432-.053.24.042.513.097 1.021l-3.182-2.29c-.12.37-.21.641-.297.912l-.393-.006-.195-2.505c-.447.727-.804 1.308-1.24 2.011-.34-.203-.801-.332-.985-.632-.169-.277-.036-.739-.036-1.118-.399.187-.448.466-.612.631-.394.4-.842.748-1.268 1.117-.221-.472-.486-.93-.65-1.422-.149-.443-.188-.923-.343-1.742l-.978 3.19-3.664-2.021c-.26-2.087-.645-2.67-2.293-3.16v4.371l-.337.013-.435-1.456-.289-.005-.319 2.046c-.106-.005-.213-.01-.32-.018v-3.946c-.45 1.063-.834 1.965-1.167 2.747-1.698-.484-.578-2.82-2.358-2.877l.59 3.08c-.178.07-.356.141-.533.213l-2.017-4.096-.859 1.736-2.195-2.502-.417.04v4.435c-.724-1.315-1.206-2.658-1.463-4.044-.264-1.424-.307-2.89-.45-4.336l-.177.082-1.17 8.672c-.105.01-.208.023-.31.032-.244-.683-.488-1.364-.839-2.358-.187.773-.284 1.18-.278 1.144-.587-.518-1.26-1.108-1.932-1.698l-.389.245v4.45l-.49.028c-.326-1.154.93-2.666-.754-3.646-.557.58-1.216 2.164-1.856.167-.494.09-.974.222-1.46.25-.427.025-.86-.07-1.411-.124-.203-.928-.436-2.008-.671-3.088l-.366.076c.108 1.26.216 2.517.327 3.778l-.347.017-.137-.918-.657.455-1.676-2.148-.24.076.406 2.26c-.098.027-.194.057-.291.086l-.81-1.33-1.05 1.294c-.307-.65-.6-1.278-1.054-2.241l-1.905 2.175-.29-.12.688-2.772c-1.982.037-.706 1.88-1.546 2.598l-1.377-2.214c-.102 1.483 1.175 2.75-.23 3.826-.327-1.051-.634-2.028-1.007-3.218-.268.346-.347.492-.467.59-.087.07-.225.075-.55.172v-3.704l-.443-.128-1.754 3.55-.353-2.431c-2.468 1.435-2.383-1.205-3.514-2.327l.255 4.32c-.147.02-.293.043-.439.065-.227-.252-.452-.503-.694-.77l-.744.63c-1.348-1.037-1.26-3.176-3.379-3.735l-.365-3.032-.91.738c-.139-.328-.218-.518-.374-.881-.272 1.779-.517 3.39-.77 5.035l-.875-.43.283 2.429c-.16.01-.321.022-.48.031-.15-.463-.3-.928-.453-1.393l-2.354 3.269c-.334-.828-.53-1.318-.644-1.602-.368.326-.744.938-1.172.975-.553.05-1.144-.357-1.901-.636-.45.3-1.186.794-1.932 1.294l-.416-1.377-.455-.079c-.157.561-.571 1.206-.421 1.667l-.156 1.919-2.523 2.286-.698-.992-.415 1.115-1.905-1.373-.468 1.186c-.258-.936-.43-1.564-.63-2.283l-.665 1.473-.988-1.624-1.11 1.374c-.428-1.292-.232-2.918-2.07-2.752l-.378 1.89c-.458-.697-.672-1.024-.929-1.413-.29.624-.524 1.122-.98 2.097-.398-1.326-.655-2.175-.784-2.61l-1.618-1.483c-.414.603-.905 1.319-1.49 2.167l-.69-3.928c-1.507 1.035-2.166 1.958-1.711 3.406.138.443.094.979-.005 1.44-.03.135-.713.318-.808.214-.333-.369-.655-.823-.775-1.296-.183-.73-.198-1.503-.283-2.257l-.585.02c-.038.496-.074.993-.136 1.8l-2.6-4.799c-.182-.01-.363-.016-.543-.026-.604 1.498-1.206 2.996-1.857 4.617l-.301-1.67-2.105-.407-.491.675c-.14-.017-.278-.033-.418-.048-.382-2.186-.761-4.37-1.142-6.556l-.27-.008v5.972c-.08.007-.162.014-.243.019l-2.37-8.114-.523.021-1.326 5.228c-.498-.487-.778-1.103-.87-1.746-.098-.69-.021-1.406-.021-2.109l-.52-.069-.868 2.844-3.238-10.594-.409.088c-.355 1.097-.711 2.193-1.106 3.406-.222-.335-.333-.5-.533-.798-.27 1.439.207 3.013-1.844 3.578.21-.91.382-1.665.513-2.234l-1.865-1.38c-.264.865-.544 1.778-.825 2.692l-.343-.095c.154-.714.308-1.429.46-2.143l-.481-.142c-.29.716-.582 1.431-.841 2.067l-1.885.593-.713-1.923-2.182 3.415-.36-.168-.334-2.09c-.89 1.232-1.66 1.087-2.385-.019-.064.666-.104 1.087-.148 1.529-.812-.134-1.582-.264-2.508-.419-.09.86-.169 1.591-.293 2.766l-1.686-3.293-.208.06c.04.599.082 1.199.154 2.229-.738-1.325-1.233-2.213-1.727-3.103-.13.057-.258.112-.388.166.426 1.77.85 3.543 1.276 5.312l-.321.097-1.184-2.494c-.554 1.595-1.287 2.15-2.418 1.144-.318.939-.61 1.803-1.012 2.997-.691-.65-1.563-1.123-1.889-1.847-.783-1.738-.679-1.786-2.05-1.836v4.56l-.31.022c-.143-.401-.283-.802-.326-.924-.401.43-.86.925-1.544 1.658l.05.94c-.182-1.379-.914-.976-1.392-.6l-3.3-3.125-.206 2.41-1.827.741-1.771-2.523c-.374 1.26-.69 2.313-1.037 3.478l-.791-.55-2.345 2.743-1.122-1.57c-.18.494-.399 1.094-.602 1.657l-2.292-.949c-.08-.397-.216-1.05-.359-1.755l-2.006 2.572-2.05-3.907c-.39.505-.69 1.217-1.213 1.482-.51.257-1.25.055-1.89.055l-.117.447c-.507-.656-1.016-1.311-1.519-1.96-.523.352-1.04.699-1.68 1.126-.315-1.158-.582-2.132-.848-3.105-.083.006-.166.01-.249.018v2.958l-1.222-1.984c-.077.688-.154 1.355-.209 1.842l-2.518-3.719-1.34 1.53c-.607-.966-1.217-1.942-2.02-3.228.064 1.032.106 1.674.162 2.54l-1.22-.868-.467 3.674-.368-.638h-2.046l-.626-.789-1.365 2.378c-.48-.37-.88-.683-1.523-1.181l.286 2.75-2.021-2.258v2.364l-1.454-2.095-.29.153c.068.667.136 1.334.259 2.513l-2.032-2.754c-.562.445-1.12.886-1.59 1.26-.992-.669-1.961-1.326-3.018-2.04l-1.024 2.893c-.471-.57-.894-.905-1.077-1.34-.35-.831-.563-1.717-.833-2.582l-.584.187.603 3.286-1.342-.694-.743 2.188c-.622-.94-1.184-1.785-1.833-2.768l-1.148 1.8c-.378-.72-.8-1.243-.93-1.832-.397-1.767-.814-2.061-2.61-1.585-.19-.595-.377-1.192-.686-2.17l-.523 1.13c-.437-.8-.544-1.713-1.489-.863l.82-4.976-.358-.06-.944 1.847-1.277-1.416c-.706 1.431-1.65 1.544-2.802.734-.303-.213-.592-.612-.899-.621-1.515-.043-1.515-.008-1.918-1.653.043.624.189 1.002.07 1.255-.706 1.5 1.297 3.6-1.067 4.685-.532-.3-1.092-.622-1.953-1.112l.76 1.824c-1.677.046-2.428-.862-3.003-2.061-.482-1.006-1.002-1.994-1.505-2.99l-.447.11c.93 1.362 1.085 2.544-.592 3.317l-1.814-2.651-.353.254.41 2.144-3.519-4.549c-.046.527.095 1.337-.208 1.916-.679 1.3-1.575 2.484-2.28 3.559l-.95-1.322-1.545 4.061c-.184-.024-.366-.051-.55-.077-.23-1.175-.458-2.35-.732-3.763l-.658 2.235c-.481-.527-.784-.858-1.307-1.433.185 1.8-.346 1.944-1.36.927l.198 1.73-3.341-.998c.021.504.054 1.222.075 1.748l-1.829.388c-.275-.362-.805-1.053-1.281-1.677l-.46 2.49c-.742-.874-1.3-1.533-1.957-2.31l-.308 3.831c-.472-.225-.992-.298-1.108-.557-.567-1.256-.775-2.69-2.772-2.577-.528.03-1.123-1.095-1.78-1.787-.318 1.386.643 3.25-1.633 3.465.083.313.154.572.225.83l-.367.121-1.184-2.9-.61 1.808c-.358-.407-.634-.72-1.067-1.206-.604 1.099-1.14 2.073-1.762 3.2-.936-1.386-2.126-1.628-3.498-1.634-.405-.001-.966-.604-1.173-1.06-.32-.696-.392-1.504-.647-2.59l-.907 1.231-.366-1.468c-.234.631-.357.958-.558 1.502l-.876-2.581-.173 2.835-.5-.022-.108-1.665-2.134.177-.084 1.447-.267.008-.346-2.124c-.398 1.654-.746 3.111-1.098 4.568-.132.017-.263.038-.395.058l-.891-2.985-.421 3.599-.39-.048-.487-3.295-.4.043-.72 2.496-.324-.072-.364-1.178c-1.852-.877-1.532.678-1.861 1.884l-.76-2.07-.176.046.228 1.577-1.212-.692c-.095.565-.168.998-.303 1.814-.536-1.09-.67-2.288-1.983-1.428-.235-.644-.424-1.156-.61-1.67l-.25.038-.184 3.075c-.574-.913-.875-1.393-1.177-1.871l-.274.175c-.087-.624-.176-1.248-.262-1.872l-.228.029c-.154.91-.31 1.82-.466 2.732l-.618.06-1.718-4.344-1.393 3.698c-.555-1.27-1-2.29-1.443-3.309-.284.73-.447 1.438-.315 2.09.167.828.196 1.309-.822 1v1.525c-.902-1.149-1.71-2.176-2.813-3.578.226.971.349 1.501.503 2.173-.975-.223-1.404 1.167-2.47.691-.155.476-.344.945-.452 1.431-.053.24.043.514.099 1.022l-3.184-2.289-.297.91c-.13 0-.262-.003-.393-.005-.058-.768-.118-1.533-.193-2.505l-1.24 2.012c-.34-.204-.803-.333-.987-.633-.168-.276-.035-.738-.035-1.118-.398.186-.448.465-.611.63-.394.4-.843.749-1.27 1.119-.22-.473-.484-.931-.649-1.422-.148-.443-.189-.924-.344-1.743-.435 1.42-.739 2.411-.976 3.19l-3.665-2.022c-.261-2.085-.645-2.67-2.293-3.158v4.37l-.338.012-.433-1.455-.292-.006-.316 2.046c-.107-.005-.213-.01-.32-.017v-3.946c-.452 1.062-.836 1.965-1.17 2.745-1.695-.482-.576-2.818-2.356-2.875l.59 3.081c-.177.07-.356.14-.534.212-.648-1.319-1.299-2.636-2.017-4.095l-.859 1.735-2.195-2.504c-.138.015-.278.029-.416.04v4.436c-.723-1.316-1.207-2.657-1.463-4.042-.264-1.424-.308-2.89-.449-4.338l-.178.084c-.39 2.89-.78 5.78-1.172 8.67-.102.01-.205.023-.31.034l-.839-2.36c-.185.775-.285 1.181-.275 1.144-.587-.517-1.26-1.107-1.932-1.697-.131.082-.26.162-.39.245v4.45l-.49.028c-.327-1.154.93-2.665-.754-3.646-.559.578-1.215 2.164-1.855.167-.132.024-.26.051-.391.078l.086-.927c-.613-.32-1.06.138-1.326 1.091-.078-.001-.16-.007-.237-.012l-.206-.99c-.444.085-.757.075-.99.005l-.479-2.206c-.105.02-.209.043-.313.065-.085-.28-.233-.525-.528-.678-.495.716-1.02 1.47-1.635 2.36l-.148-.19-.087-1.376-1.354.256.119-1.58-.351-.08-1.168 2.715-.683-1.265-.628 1.056-1.964-4.493-.273-.03v4.287c-.212-.001-.423-.004-.633-.007l-.242-4.776-.236.082-.913 3.496-.994-1.78-.548.75v-.075l-.443-.129-1.08 2.187c-.566-1.054-1.008-1.877-1.657-3.081l-.581 2.424c-.122.001-.231-.015-.334-.046-.217-.46-.356-.75-.471-.99l-.348.253c-.368-.613-.632-1.44-1.15-1.953l.105 1.771c-.041-.1-.087-.2-.12-.303-.287-.892-.545-1.793-.815-2.692-.146.01-.291.018-.439.027v5.112c-.147.015-.295.03-.445.043l-1.776-4.889c-.153.714-.298 1.369-.434 1.999-.287-.237-.624-.438-1.076-.558l-.366-3.033c-.297.241-.588.477-.91.736l-.373-.881c-.08.512-.151.988-.225 1.476l-2.18-.384c.195 1.018.393 2.037.59 3.054l-.548.093c-.492-1.091-1.957-2.043-.343-3.434-.579.047-1.16.092-1.739.137l-.305 2.374-.303.007c-.24-.677-.482-1.351-.721-2.028l-.23.078v4.28c-.845.053-1.446.091-2.008.128-.434-1.02-.892-2.09-1.455-3.407-.36 1.154-.682 2.107-.952 3.073-.256.923-.073 2.09-1.688 2.51l.762-2.58-.343-.14-1.688 3.274c-.76-2.346-1.37-4.232-2.007-6.206v4.98c-2.169-1.33.387-3.15-.928-4.416l-.86 4.699c-1.667-1.258-2.672-2.946-3.21-5.113l-1.865 1.3-.648-1.102c-.381 1.415-.756 2.806-1.13 4.2l-.46-.09-.442-1.146c-.334.45-.573.772-.91 1.229-.299-.57-.515-.979-.583-1.111-.686-.047-1.19-.08-1.715-.117l-.562.695-1.29-1.718c-.164.627-.318 1.257-.496 1.88-.153.537-.334 1.064-.502 1.597-.164-.034-.328-.07-.492-.103-.07-.546-.14-1.093-.2-1.576-.561-.17-1.092-.333-1.716-.524-.321.48-.65.978-.972 1.46l-.65-2.28c-.73 1.043-1.464 2.098-2.29 3.28-.573-1.065 1.539-2.376-.251-3.136-.403.552-.748 1.03-1.241 1.71l-.56-2.678-2.463 5.015-.301-.577c-.52-.148-1.04-.293-1.919-.54l-.359-2.337c-.153.049-.396.126-.757.244v-.955c-.827-.121-1.455-.212-2.124-.308-.132.524-.27 1.081-.524 2.102l-3.953-4.377c-.11.642-.451 1.318-.245 1.657.863 1.413.096 1.955-.96 2.733-1.16.857-1.327.968-1.695-.458-.12-.463.006-1.032.148-1.513.319-1.076.718-2.126 1.084-3.189l-.402-.156-2.217 4.147c-.788-.291-1.64-.606-2.546-.943l-.299.51-2.229-1.929c-.317 1.844-.6 3.493-.881 5.141l-.385.118c-.295-1.577-.59-3.156-.883-4.733l-.299-.061-.95 4.59-.606.059-1.816-5.388c-2.08 1.709.073 4.224-1.57 5.87l-.203-2.322c-.366.492-.556.744-.932 1.248l-.356-5.006c-2.218.339-3.08 1.624-3.072 3.683l-.393-.177-1.101-1.895c-.076.109-.151.219-.224.327l-2.902-2.07-1.45 2.66c-.715-.502-1.627-.808-1.859-1.39-.285-.71 0-1.651.038-2.492l-.425-.046c-.283 1.449-.563 2.898-.846 4.345-.788-.819-1.228-1.655-1.659-2.498-.178-.35-.33-.716-.496-1.076-.382.243-.785.458-1.14.736-.407.319-.77.691-1.153 1.041.021.034.046.07.068.103l-2.04 2.416-1.092-2.966c-2.499.46-2.606-2.552-4.605-3.42.489 1.584-.09 2.01-1.352 2.006.092-.754.158-1.329.227-1.902-.085-.042-.171-.081-.256-.122-.288.556-.574 1.11-.86 1.659-.048-.075-.114-.155-.154-.246-.68-1.497-.328-3.49-1.793-4.55-1.075-.776-.925-1.51-.573-2.458.146-.394.266-.798.317-.953l-1.755 1.098c-.093-.13-.187-.263-.283-.394l-.436 1.234c-2.868.561-1.202-2.15-2.152-2.93-1.186 1.542.752 3.677-1.336 5.328.143-.948.237-1.582.331-2.215l-.298-.167-1.996 2.574-.296-.15c.472-1.795.943-3.59 1.413-5.386l-.228.027c-1.02 2.147-2.038 4.294-3.113 6.555-1.298-1.832.655-3.73-.542-5.57l-.845 3.346-.384-.084c.267-1.253.55-2.504.795-3.762.096-.493.185-1.012.112-1.494-.016-.113-.792-.29-1.055-.144-.381.213-.746.65-.877 1.068-.306.985-.47 2.015-.694 3.027l-.72-.075.865-8.314c-1.985.912-1.1 3.513-3.14 4.324-.022-4.487-.022-4.487-2.56-4.423-.91 2.822-1.84 5.714-2.771 8.605l-.358-.07c.157-2.307.312-4.615.47-6.923-1.21 3.68-2.224 7.41-3.878 10.892-.22-.017-.44-.036-.66-.052l-.7-3.827-.888 1.316c-.73-.853-1.412-1.647-2.149-2.506-.33 1.376-.563 2.355-.797 3.335-.093-.01-.186-.022-.279-.034l-.437-2.034-1.03 3.994c-.244-1.205-.186-2.383-.716-3.152-.566-.817.28-2.434-1.795-2.73l.963 3.792c-.965-.713-1.955-1.49-2.03-2.35-.154-1.699-1.185-2.62-2.33-3.631.27 1.402.364 3.11 1.264 4.001 1.461 1.452.249 2.038-.309 3.308l-2.163-6.094c-.756.816-1.166 1.26-1.563 1.687-.974-1.618 1.443-3.2.024-4.802l-1.43 3.547c-.142-.039-.286-.08-.428-.121l-.409-1.438-.695.53c.421-1.727.806-3.312 1.19-4.898l-.607-.17-1.02 3.734-1.489-2.007c-.403.175-1.366.388-1.378.641-.028.65.263 1.38.614 1.964.546.905.874 1.722.09 2.87-.59-1.42-1.104-2.567-2.833-.609l.764-3.242c-.154-.042-.308-.086-.462-.126l-1.323 3.942-2.996-1.05-.811-2.465-1.257 2.302-.223-2.007-.833-.584c-.46.802-.918 1.606-1.265 2.213-.278-1.662-.56-3.342-.863-5.162l-2.288 3.31-.64-1.74-1.45 2.555c-.225-.307-.374-.51-.516-.709l-.804 1.257-.332-.133-.13-1.382c-.263.34-.527.681-1.04 1.338v-3.26l-.131-.007c-.358 1.34-.714 2.68-1.07 4.02-.178-.047-.355-.094-.529-.143l-.194-2.402c-.331.458-.51.703-.628.868l-1.626-1.072v-1.412l-.35-.077-2.265 5.159-.395-2.588c-.383 1.188-.619 1.932-.989 3.088-.448-1.65-.784-2.89-1.122-4.13l-.241.058c.226 2.145.453 4.292.688 6.498l-1.746.085v-3.686l-.784-.005v3.225c-.944-.292-1.712-.777-2.022-.568-.488.325-.666 1.117-1.012 1.78-1.328-.974-2.633-1.926-3.935-2.879v3.99c-.44-.366-.906-.758-1.47-1.232l.508 1.893c-.116.039-.232.077-.348.118-.383-1.005-.77-2.007-1.235-3.223-.094 1.054-.166 1.895-.24 2.735l-.42.017-.793-3-.404.09v3.236c-.071.021-.143.043-.213.066-.17-.36-.342-.716-.613-1.287-.274.818-.452 1.355-.674 2.02l-.87-1.274-.363 1.502-2.638-2.322-.916.553-.804-1.958-.38-.012-.519 2.176-.824-2.744c-.121.02-.244.038-.367.059l.625 3.95c-.087.017-.174.035-.262.051-.172-.565-.347-1.13-.407-1.325l-2.982 2.7-.698-.993-.414 1.115c-.697-.5-1.285-.926-1.905-1.374l-.47 1.186c-.256-.935-.43-1.561-.63-2.282l-.663 1.472-.99-1.622-1.108 1.374c-.428-1.292-.233-2.92-2.07-2.752l-.378 1.889-.928-1.414-.983 2.1-.784-2.613c-.713-.653-1.159-1.061-1.615-1.481l-1.49 2.165-.693-3.927c-1.506 1.034-2.166 1.958-1.71 3.407.138.443.095.977-.006 1.439-.03.135-.712.317-.806.212-.335-.365-.655-.82-.775-1.294-.184-.729-.197-1.501-.284-2.256-.194.007-.39.012-.584.02l-.137 1.8-2.599-4.8-.545-.025-1.857 4.615c-.121-.672-.218-1.22-.3-1.667l-2.104-.41-.492.676c-.139-.015-.28-.033-.418-.049l-1.141-6.554-.27-.01v5.975c-.081.004-.162.01-.243.017l-2.371-8.114-.522.023c-.443 1.743-.885 3.485-1.326 5.228-.5-.488-.778-1.104-.87-1.748-.098-.69-.023-1.405-.023-2.11l-.518-.068c-.281.92-.997 1.84-1.307 2.843V3898h800v-47.983z" transform="translate(-50 -3844)"/>
        </g>
    </g>
</svg>
