<svg xmlns="http://www.w3.org/2000/svg" xmlns:xlink="http://www.w3.org/1999/xlink" width="104" height="168" viewBox="0 0 104 168">
    <defs>
        <path id="ulnpnjtepa" d="M32.464 1.586C36.09-.652 40.357.163 42.9 2.562c1.44 1.36 2.909 1.735 4.825 1.195.68-.194 1.712.032 2.281.459.556.416 1.1 1.413.965 2.007-.14.618-1.022 1.24-1.72 1.525-.789.322-1.736.27-2.513.367l-.143.668.002.05c.006.516-.03 1.04-.075 1.565l-.047.526c-.183 2.02-.345 4.05 1.328 5.805.22.23-.063 1.014-.215 1.51-.477 1.566-1.723 3.311-1.367 4.638.85 3.167-.966 3.129-2.924 3.013-1.46-.085-2.093.455-2.591 1.764-.672 1.766-.696 3.152.992 4.387 1.24.906 2.172 2.02 1.747 3.863-.239 1.033-.177 2.296.202 3.283 2.162 5.637 4.09 11.407 3.237 17.458-.115.819-.135 1.576-.072 2.283 2.483-.65 4.874-1.646 7.338-2.377 2.467-.732 4.352-2.06 5.64-4.346.506-.899 1.143-1.57 1.937-1.996-.077-.106-.162-.209-.256-.31-1.213-1.297-1.74-4.576-1.582-9.84l1.47.29 1.564 1.988.032.04c.004.006 1.492 3.62 1.13 5.453-.074.373-.053 1.01.056 1.832.152 0 .309.006.468.017 2.584.18 3.728-.471 3.953 2.221.178 2.116 1.83 6.818-.803 7.154-.359.046-.642-.046-.91-.197.66 1.53 1.427 3.024 2.29 4.345 3.493 5.347.75 9.443 3.725 14.8C75.84 83.36 78.732 93.973 79.75 97.6c.47 1.679 1.904 5.444 3.4 9.307l.36.928c1.618 4.175 3.225 8.28 3.683 9.81.395 1.321 2.164 6.031 4.033 11.021l.295.79.445 1.188c2.218 5.932 4.343 11.685 4.262 12.093-.105.534 1.316 6.156 7.525 15.244l-1.703 1.802c-2.197-2.943-3.898-5.51-5.103-7.699-1.806-3.285-4.72-13.22-5.612-16.557-.892-3.338-8.2-21.56-10.606-25.052-1.46-2.119-3.04-7.97-4.604-13.588l-.275-.988c-.918-3.28-1.827-6.398-2.698-8.547-1.084-2.675-2.664-7.32-4.271-12.127l-.403-1.204c-1.876-5.625-3.738-11.265-4.84-14.048-.281-.708-.494-1.371-.656-1.993-.608.165-1.328.443-2.19.872-4.075 2.027-7.381 4.272-11.053 6.794l.519-.357.027.028-4.17 6.051c-.065 5.115.277 9.977.47 14.845.024.627-.145 1.262-.337 1.898l-.195.636c-.063.212-.123.424-.173.635l-.952.043c2.387 7.004 4.42 14.156 7.29 20.957 1.81 4.286 2.987 8.537 3.31 13.106.115 1.596.232 3.199.476 4.78 1.12 7.233 2.242 14.467 3.48 21.681.187 1.089.755 2.34 1.558 3.054 3.609 3.207 7.557 5.73 12.765 4.92.745-.116 1.581-.245 2.263-.024.867.282 1.932.752 2.302 1.458.22.42-.575 1.64-1.198 2.162-.883.74-1.968 1.415-3.074 1.684-3.514.853-7.084 1.479-10.62 2.248-1.502.327-3.675-.834-4.222 1.797-.025.117-.447.212-.684.214-2.325.016-4.65.01-6.897.01-.694-4.314-1.119-8.419-2.04-12.41-2.445-10.581-5.388-21.057-7.564-31.69-1.206-5.893-3.685-10.717-8.286-14.758-.667 1.611-1.393 3.207-1.996 4.849-1.856 5.053-3.342 10.27-5.568 15.153-3.311 7.262-7.106 14.307-10.752 21.414-1.657 3.23-1.225 6.221.897 8.987 2.08 2.712 4.694 4.526 8.33 4.642.81.026 1.592.925 2.388 1.422-.639.802-1.128 1.877-1.957 2.332-.901.494-2.168.7-3.19.528-3.389-.571-6.742-1.355-10.101-2.09-.898-.196-2.206-1.014-2.581-.69-1.443 1.248-2.848.917-4.242.533l-.398-.11c-.663-.181-1.325-.342-1.987-.317-2.367.09-2.946-1.44-2.483-3.295.744-2.982 1.73-5.909 2.693-8.833 3.239-9.832 6.308-19.714 11.36-28.858 5.678-10.276 6.928-21.513 6.476-33.016-.031-.8-1.13-1.544-1.696-2.34-.562-.79-1.51-1.595-1.547-2.427-.374-8.4-.589-16.806-.873-25.21-.024-.735-.227-1.465-.347-2.197l-.754.011c-.072.408-.154.816-.24 1.223l-.256 1.222c-.209 1.018-.392 2.038-.437 3.063-.268 6.027-.59 12.065-.464 18.09l.01.396.024.79.027.788c.111 3.28.15 6.52-1.685 9.732-.783-.383-1.214-.618-1.663-.81-4.14-1.766-5.102-3.471-4.352-7.764.642-3.673 1.973-7.106 1.22-11.129-.742-3.971-1.06-8.022-1.345-12.078l-.17-2.434c-.085-1.217-.175-2.432-.28-3.645-.252-2.954 1.102-5.334 2.456-7.714l.368-.65c.549-.975 1.073-1.959 1.462-2.99 1.052-2.79 3.247-5.129 4.535-7.855 1.052-2.226 2.402-4.091 4.05-5.631.642-1.182 1.711-2.134 2.91-3.133 2.158-1.799 3.45-4.209 5.576-6.044.04-.032.098-.044.137-.078.517-.468 1.227-5.283 1.076-5.97-.143-.653-.412-1.25-.697-1.843l-.285-.594c-.377-.797-.716-1.62-.753-2.593-.183-4.59 1.962-7.508 5.78-9.864z"/>
    </defs>
    <g fill="none" fill-rule="evenodd">
        <g>
            <g>
                <g transform="translate(-51 -1168) translate(51 1168)">
                    <use fill="#009042" xlink:href="#ulnpnjtepa"/>
                </g>
            </g>
        </g>
    </g>
</svg>
